<?xml version="1.0" standalone="no"?>
<!DOCTYPE svg PUBLIC "-//W3C//DTD SVG 20010904//EN"
 "http://www.w3.org/TR/2001/REC-SVG-20010904/DTD/svg10.dtd">
<svg version="1.0" xmlns="http://www.w3.org/2000/svg"
 width="260.000000pt" height="260.000000pt" viewBox="0 0 260.000000 260.000000"
 preserveAspectRatio="xMidYMid meet">
<metadata>
Created by potrace 1.11, written by Peter Selinger 2001-2013
</metadata>
<g transform="translate(0.000000,260.000000) scale(0.100000,-0.100000)"
fill="#000000" stroke="none">
<path d="M100 1305 l0 -1195 1195 0 1195 0 0 1195 0 1195 -1195 0 -1195 0 0
-1195z m2330 5 l0 -1140 -1140 0 -1140 0 0 1140 0 1140 1140 0 1140 0 0 -1140z"/>
<path d="M204 1987 c-3 -8 -4 -34 -2 -58 l3 -44 153 -3 152 -3 0 -369 0 -369
-152 -3 -153 -3 0 -55 0 -55 318 -3 317 -2 0 -40 0 -40 -144 0 c-79 0 -151 -3
-160 -6 -12 -4 -16 -20 -16 -55 l0 -50 728 3 727 3 70 26 c167 62 241 119 301
231 l39 73 0 141 c0 139 0 140 -34 207 -43 85 -115 153 -211 200 -90 45 -180
65 -320 74 -73 4 -107 10 -113 20 -10 17 -102 85 -147 108 -19 10 -82 32 -140
49 l-105 30 -553 4 c-476 3 -553 1 -558 -11z m1136 -126 c65 -14 160 -51 160
-62 0 -5 -168 -9 -420 -9 l-420 0 0 46 0 46 318 -5 c174 -3 337 -10 362 -16z
m-537 -187 l37 -7 0 -263 0 -264 -90 0 -90 0 0 270 0 270 53 0 c28 0 69 -3 90
-6z m828 -21 c33 -84 28 -237 -10 -311 -27 -52 -78 -102 -139 -135 -48 -26
-160 -56 -209 -57 l-23 0 0 259 0 260 23 4 c12 2 95 5 185 6 l162 1 11 -27z
m-531 -248 l0 -265 -55 0 -55 0 0 265 0 265 55 0 55 0 0 -265z m897 233 c88
-29 151 -72 190 -131 45 -67 56 -116 51 -227 -3 -84 -7 -102 -34 -150 -56 -99
-156 -155 -321 -179 -39 -6 -198 -11 -352 -11 l-281 0 0 44 0 44 57 7 c78 10
198 42 245 66 117 60 205 156 235 258 17 61 22 179 10 260 l-8 54 70 -7 c39
-3 101 -16 138 -28z m-897 -658 l0 -40 -55 0 -55 0 0 40 0 40 55 0 55 0 0 -40z"/>
<path d="M598 663 c7 -3 16 -2 19 1 4 3 -2 6 -13 5 -11 0 -14 -3 -6 -6z"/>
<path d="M754 570 c0 -58 1 -81 3 -52 2 28 2 76 0 105 -2 28 -3 5 -3 -53z"/>
<path d="M888 663 c7 -3 16 -2 19 1 4 3 -2 6 -13 5 -11 0 -14 -3 -6 -6z"/>
<path d="M2084 570 c0 -58 1 -81 3 -52 2 28 2 76 0 105 -2 28 -3 5 -3 -53z"/>
<path d="M1702 640 c0 -14 2 -19 5 -12 2 6 2 18 0 25 -3 6 -5 1 -5 -13z"/>
<path d="M543 570 c0 -47 2 -66 4 -42 2 23 2 61 0 85 -2 23 -4 4 -4 -43z"/>
<path d="M1047 609 c-9 -6 -15 -15 -11 -20 4 -6 11 -6 19 1 20 17 56 8 73 -17
14 -23 14 -23 -36 -23 -58 0 -80 -17 -63 -49 14 -25 44 -35 87 -26 46 8 43 24
-3 18 -28 -4 -44 0 -60 15 -30 25 -21 32 44 32 44 0 53 3 53 18 0 44 -62 75
-103 51z"/>
<path d="M1270 613 c8 -3 19 -11 23 -17 6 -7 7 -6 4 4 -2 8 -12 16 -23 17 -13
2 -15 1 -4 -4z"/>
<path d="M1534 545 c-1 -56 1 -63 3 -25 5 60 16 80 44 80 25 0 39 -30 39 -84
0 -25 5 -46 10 -46 16 0 12 103 -5 127 -16 23 -61 25 -75 3 -6 -9 -9 -8 -12 6
-2 10 -4 -17 -4 -61z"/>
<path d="M1670 610 c0 -5 5 -10 11 -10 5 0 7 5 4 10 -3 6 -8 10 -11 10 -2 0
-4 -4 -4 -10z"/>
<path d="M1730 611 c-22 -6 -26 -14 -31 -66 -3 -37 -1 -63 5 -67 16 -11 56
-10 56 2 0 6 -11 10 -25 10 -24 0 -25 3 -25 55 0 52 1 55 25 55 14 0 25 5 25
10 0 6 -1 10 -2 9 -2 -1 -14 -4 -28 -8z"/>
<path d="M1810 608 c0 -20 16 -32 25 -18 3 5 15 10 26 10 10 0 19 5 19 10 0
12 -20 13 -40 0 -9 -6 -17 -5 -22 3 -5 8 -8 7 -8 -5z"/>
<path d="M1923 613 c-23 -9 -14 -20 12 -15 13 2 32 2 40 -2 8 -3 19 -5 23 -6
4 0 10 -28 13 -62 l6 -63 1 62 c2 54 -1 64 -20 77 -22 16 -51 19 -75 9z"/>
<path d="M683 570 c0 -25 2 -35 4 -22 2 12 2 32 0 45 -2 12 -4 2 -4 -23z"/>
<path d="M973 570 c0 -25 2 -35 4 -22 2 12 2 32 0 45 -2 12 -4 2 -4 -23z"/>
<path d="M1207 603 c-3 -3 -3 -12 0 -21 4 -10 2 -13 -5 -8 -14 9 -15 -3 -2
-24 8 -13 10 -13 10 2 0 9 7 23 15 31 12 13 12 16 1 20 -8 3 -16 3 -19 0z"/>
<path d="M1353 593 c-3 -10 -8 -21 -10 -25 -2 -5 0 -8 4 -8 14 0 34 38 23 45
-6 4 -13 -2 -17 -12z"/>
<path d="M1438 604 c-4 -3 0 -17 9 -30 l15 -24 -50 0 c-58 0 -80 -17 -62 -49
15 -29 19 -26 15 9 l-4 30 54 0 c46 0 55 3 55 18 0 22 -23 56 -32 46z"/>
<path d="M1020 570 c0 -5 5 -10 11 -10 5 0 7 5 4 10 -3 6 -8 10 -11 10 -2 0
-4 -4 -4 -10z"/>
<path d="M1813 520 c0 -30 2 -43 4 -27 2 15 2 39 0 55 -2 15 -4 2 -4 -28z"/>
<path d="M1953 563 c9 -2 25 -2 35 0 9 3 1 5 -18 5 -19 0 -27 -2 -17 -5z"/>
<path d="M1903 515 c0 -41 47 -58 83 -30 18 14 16 15 -18 9 -34 -6 -39 -4 -48
20 -12 33 -17 33 -17 1z"/>
<path d="M1190 524 c0 -18 22 -42 34 -38 12 5 12 9 -2 25 -16 18 -32 25 -32
13z"/>
<path d="M649 516 c0 -1 -2 -9 -4 -19 -3 -18 -3 -18 16 -1 10 9 19 18 19 19 0
2 -29 3 -31 1z"/>
<path d="M939 516 c0 -1 -2 -9 -4 -19 -3 -18 -3 -18 16 -1 10 9 19 18 19 19 0
2 -29 3 -31 1z"/>
<path d="M1282 484 c-7 -8 -8 -14 -3 -14 10 0 25 19 20 25 -2 1 -10 -3 -17
-11z"/>
<path d="M1455 490 c3 -5 8 -10 11 -10 2 0 4 5 4 10 0 6 -5 10 -11 10 -5 0 -7
-4 -4 -10z"/>
<path d="M598 473 c7 -3 16 -2 19 1 4 3 -2 6 -13 5 -11 0 -14 -3 -6 -6z"/>
<path d="M888 473 c7 -3 16 -2 19 1 4 3 -2 6 -13 5 -11 0 -14 -3 -6 -6z"/>
</g>
</svg>
