<?xml version="1.0" standalone="no"?>
<!DOCTYPE svg PUBLIC "-//W3C//DTD SVG 20010904//EN"
 "http://www.w3.org/TR/2001/REC-SVG-20010904/DTD/svg10.dtd">
<svg version="1.0" xmlns="http://www.w3.org/2000/svg"
 width="260.000000pt" height="260.000000pt" viewBox="0 0 260.000000 260.000000"
 preserveAspectRatio="xMidYMid meet">
<metadata>
Created by potrace 1.11, written by Peter Selinger 2001-2013
</metadata>
<g transform="translate(0.000000,260.000000) scale(0.100000,-0.100000)"
fill="#000000" stroke="none">
<path d="M0 1300 l0 -1300 1300 0 1300 0 0 1300 0 1300 -1300 0 -1300 0 0
-1300z m2490 5 l0 -1195 -1195 0 -1195 0 0 1195 0 1195 1195 0 1195 0 0 -1195z"/>
<path d="M147 2033 c-15 -4 -17 -14 -15 -71 l3 -67 168 -3 167 -2 0 -375 0
-375 -167 -2 -168 -3 -3 -67 -3 -68 336 0 335 0 0 -35 0 -35 -160 0 -160 0 0
-65 0 -66 793 3 792 3 83 29 c45 15 82 32 82 37 0 5 23 20 50 34 27 14 50 29
50 34 0 4 16 26 35 47 20 22 48 67 64 101 28 58 29 68 30 210 2 145 1 151 -27
214 -53 116 -158 212 -278 251 -38 13 -71 26 -74 29 -9 11 -159 29 -241 29
l-80 0 -42 43 c-44 45 -125 97 -151 97 -8 0 -22 7 -30 15 -20 20 -121 41 -261
55 -106 10 -1091 13 -1128 3z m1039 -143 c71 -6 138 -14 149 -19 11 -5 49 -18
85 -29 l65 -20 -422 -1 -423 -1 0 40 0 40 209 0 c114 0 266 -5 337 -10z m-386
-485 l0 -265 -80 0 -80 0 0 265 0 265 80 0 80 0 0 -265z m280 0 l0 -265 -50 0
-50 0 0 265 0 265 50 0 50 0 0 -265z m558 256 c7 -4 18 -38 24 -75 13 -80 -1
-196 -26 -221 -9 -9 -16 -22 -16 -28 0 -11 -18 -32 -83 -94 -30 -29 -109 -62
-164 -70 -24 -3 -43 -10 -43 -14 0 -5 -16 -9 -35 -9 l-35 0 0 260 0 260 183 0
c100 0 188 -4 195 -9z m384 -23 c59 -15 87 -29 119 -58 24 -21 46 -37 49 -35
12 7 69 -102 76 -143 4 -23 10 -42 15 -42 5 0 9 -25 9 -55 0 -30 -4 -55 -9
-55 -5 0 -11 -21 -15 -47 -3 -27 -16 -64 -28 -83 -12 -19 -27 -44 -33 -55 -6
-11 -40 -34 -75 -52 -36 -18 -69 -37 -75 -41 -35 -27 -133 -36 -457 -40 l-338
-4 0 35 0 34 63 7 c97 10 196 34 213 51 8 8 22 15 30 15 26 0 107 53 156 102
29 28 64 80 89 130 39 78 42 90 46 188 3 58 1 122 -5 142 l-10 37 51 -6 c29
-2 87 -14 129 -25z m-942 -673 l0 -35 -50 0 -50 0 0 35 0 35 50 0 50 0 0 -35z"/>
<path d="M523 633 l-43 -4 0 -105 0 -104 65 0 c69 0 118 17 129 45 3 9 6 39 6
66 0 40 -5 55 -25 74 -13 14 -33 25 -44 25 -11 0 -25 1 -33 3 -7 2 -32 2 -55
0z m79 -50 c23 -20 24 -80 1 -105 -9 -10 -29 -18 -45 -18 l-28 0 0 70 c0 69 0
70 27 70 14 0 35 -7 45 -17z"/>
<path d="M833 633 l-43 -4 0 -105 0 -104 70 0 c62 0 74 3 95 25 21 20 25 34
25 80 0 46 -4 60 -25 80 -13 14 -31 25 -39 25 -8 0 -20 1 -28 3 -7 2 -32 2
-55 0z m69 -50 c21 -19 25 -92 6 -111 -7 -7 -25 -12 -40 -12 -28 0 -28 0 -28
70 0 65 1 70 22 70 12 0 30 -7 40 -17z"/>
<path d="M700 525 l0 -105 25 0 25 0 0 105 0 105 -25 0 -25 0 0 -105z"/>
<path d="M2100 525 l0 -105 30 0 30 0 0 105 0 105 -30 0 -30 0 0 -105z"/>
<path d="M1689 598 c-3 -56 4 -145 12 -160 7 -13 22 -18 55 -18 49 0 57 16 16
35 -18 8 -22 18 -22 52 0 39 2 43 25 43 16 0 25 6 25 15 0 9 -9 15 -25 15 -18
0 -25 5 -25 20 0 16 -7 20 -30 20 -24 0 -30 -4 -31 -22z"/>
<path d="M1016 561 c-28 -31 -31 -82 -6 -114 21 -26 27 -28 84 -25 54 3 61 6
64 24 3 20 -1 22 -49 20 -34 -1 -53 3 -56 12 -3 9 11 12 51 12 55 0 56 1 56
28 0 41 -28 62 -82 62 -31 0 -50 -6 -62 -19z m90 -32 c3 -5 -8 -9 -25 -9 -22
0 -29 4 -25 14 5 14 40 11 50 -5z"/>
<path d="M1194 559 c-11 -13 -19 -35 -19 -59 0 -58 26 -80 92 -80 51 0 54 2
51 22 -3 20 -8 23 -40 20 -44 -4 -67 23 -48 59 9 16 19 20 48 17 32 -3 37 0
40 20 3 20 0 22 -51 22 -42 0 -58 -5 -73 -21z"/>
<path d="M1352 558 c-35 -38 -37 -70 -6 -107 25 -30 30 -32 88 -29 53 3 61 5
61 23 0 18 -6 20 -46 17 -32 -3 -49 1 -58 12 -12 14 -7 16 48 16 60 0 61 0 61
28 0 41 -28 62 -82 62 -33 0 -50 -6 -66 -22z m88 -28 c0 -5 -11 -10 -25 -10
-14 0 -25 5 -25 10 0 6 11 10 25 10 14 0 25 -4 25 -10z"/>
<path d="M1510 500 l0 -80 30 0 c29 0 30 1 30 48 0 55 11 77 34 69 12 -5 16
-20 16 -62 0 -54 0 -55 30 -55 l30 0 0 61 c0 92 -7 99 -95 99 l-75 0 0 -80z"/>
<path d="M1810 500 l0 -80 30 0 c28 0 29 1 32 57 3 51 6 57 28 63 14 4 48 4
75 0 43 -6 45 -8 14 -9 -47 -1 -71 -28 -67 -73 l3 -33 78 -3 77 -3 0 65 c0 93
-5 96 -151 96 l-119 0 0 -80z m210 -15 c0 -20 -28 -31 -42 -17 -10 10 8 23 40
31 1 1 2 -6 2 -14z"/>
</g>
</svg>
