<?xml version="1.0" standalone="no"?>
<!DOCTYPE svg PUBLIC "-//W3C//DTD SVG 20010904//EN"
 "http://www.w3.org/TR/2001/REC-SVG-20010904/DTD/svg10.dtd">
<svg version="1.0" xmlns="http://www.w3.org/2000/svg"
 width="514.000000pt" height="514.000000pt" viewBox="0 0 514.000000 514.000000"
 preserveAspectRatio="xMidYMid meet">
<metadata>
Created by potrace 1.11, written by Peter Selinger 2001-2013
</metadata>
<g transform="translate(0.000000,514.000000) scale(0.100000,-0.100000)"
fill="#000000" stroke="none">
<path d="M0 2570 l0 -2570 2570 0 2570 0 0 2570 0 2570 -2570 0 -2570 0 0
-2570z m5070 0 l0 -2500 -2500 0 -2500 0 0 2500 0 2500 2500 0 2500 0 0 -2500z"/>
<path d="M1245 3789 c-156 -7 -350 -33 -369 -48 -6 -4 -29 -12 -51 -16 -67
-12 -125 -34 -251 -96 -223 -109 -375 -273 -424 -459 -7 -25 -17 -56 -24 -69
-15 -33 -15 -479 1 -512 6 -13 18 -52 27 -86 44 -164 201 -334 409 -443 53
-27 102 -50 109 -50 6 0 30 -9 52 -20 23 -10 79 -29 126 -42 l85 -23 1600 -3
c1088 -2 1621 1 1665 8 76 12 193 41 200 50 3 3 36 16 75 28 38 13 91 36 117
52 27 17 51 30 54 30 20 0 141 100 207 170 56 60 87 103 116 163 66 139 74
192 68 438 -5 208 -7 230 -22 301 -9 37 -51 116 -107 200 -37 53 -182 198
-199 198 -5 0 -36 18 -70 40 -34 22 -67 40 -74 40 -7 0 -33 11 -59 25 -26 14
-84 35 -129 46 -45 12 -86 25 -92 29 -20 16 -225 42 -400 50 -213 11 -2423 10
-2640 -1z m1165 -949 l0 -730 -140 0 -140 0 0 725 0 724 63 4 c34 2 97 4 140
5 l77 2 0 -730z m468 724 l92 -7 0 -713 0 -712 -97 -7 c-54 -3 -115 -8 -135
-11 l-38 -6 0 731 0 731 43 0 c24 0 85 -3 135 -6z m-1038 -729 l0 -725 -209 0
c-129 0 -212 4 -216 10 -3 6 -53 10 -113 10 -105 0 -271 18 -365 39 -77 18
-227 81 -282 119 -109 75 -189 174 -220 272 -10 30 -22 63 -27 74 -5 10 -14
61 -20 113 -12 102 1 286 21 306 6 6 11 19 11 28 0 25 71 160 109 208 51 64
205 162 301 191 25 7 50 17 55 20 16 12 103 30 210 44 65 9 212 14 423 15
l322 1 0 -725z m2286 702 c132 -24 273 -77 356 -134 26 -18 49 -33 52 -33 2 0
25 -21 52 -47 59 -58 119 -151 140 -218 8 -27 21 -61 27 -74 16 -33 16 -339 0
-372 -6 -13 -19 -49 -27 -79 -8 -30 -27 -70 -41 -89 -14 -19 -25 -40 -25 -47
0 -18 -119 -133 -160 -155 -19 -10 -64 -32 -100 -49 -36 -17 -73 -36 -83 -41
-50 -27 -257 -60 -412 -65 -88 -3 -169 -10 -180 -15 -23 -11 -391 -6 -442 6
l-33 7 0 715 0 715 393 -5 c305 -3 412 -7 483 -20z"/>
<path d="M310 1764 l-40 -37 2 -186 3 -186 139 -3 c137 -3 140 -2 178 24 21
15 52 42 68 61 30 33 30 34 30 159 0 194 -10 204 -210 204 l-130 0 -40 -36z
m318 6 c43 -27 52 -54 52 -164 0 -172 -15 -186 -195 -186 l-125 0 0 185 0 185
118 0 c99 0 122 -3 150 -20z"/>
<path d="M402 1603 l3 -148 86 -3 c74 -2 89 0 112 18 26 21 27 24 27 130 0
105 -1 109 -26 129 -23 18 -41 21 -116 21 l-89 0 3 -147z m198 108 c5 -11 10
-62 10 -115 0 -121 -4 -126 -111 -126 l-79 0 0 130 0 130 85 0 c73 0 86 -3 95
-19z"/>
<path d="M466 1684 c-11 -29 -6 -160 6 -172 7 -7 26 -12 43 -12 47 0 55 15 55
100 0 46 -5 81 -12 88 -18 18 -85 15 -92 -4z"/>
<path d="M749 1761 c-32 -32 -39 -46 -39 -78 0 -46 14 -63 52 -63 27 0 28 -2
28 -52 0 -49 -3 -55 -40 -89 -30 -27 -40 -44 -40 -67 0 -62 -1 -62 149 -62
l136 0 38 31 c36 30 38 34 35 83 -3 50 -4 51 -35 54 -33 3 -33 3 -33 60 0 53
2 59 35 85 34 27 36 32 33 80 l-3 52 -138 3 -139 3 -39 -40z m301 -15 c0 -43
-1 -45 -32 -48 l-33 -3 0 -95 0 -95 33 -3 c30 -3 32 -6 32 -43 l0 -39 -125 0
-125 0 0 39 c0 37 2 40 33 43 l32 3 3 98 3 97 -36 0 c-34 0 -35 1 -35 38 0 21
3 42 7 45 3 4 60 7 125 7 l118 0 0 -44z"/>
<path d="M840 1740 c0 -5 18 -10 40 -10 l40 0 0 -130 0 -130 -40 0 c-22 0 -40
-4 -40 -10 0 -6 35 -10 85 -10 50 0 85 4 85 10 0 6 -16 10 -35 10 l-35 0 0
130 0 130 34 0 c19 0 38 5 41 10 4 6 -27 10 -84 10 -54 0 -91 -4 -91 -10z"/>
<path d="M1140 1764 l-40 -37 2 -186 3 -186 142 -3 142 -3 53 44 c29 24 59 54
65 68 8 15 13 68 13 142 0 186 -11 197 -210 197 l-130 0 -40 -36z m305 12 c18
-8 38 -23 44 -34 12 -22 15 -249 5 -277 -13 -34 -59 -45 -184 -45 l-120 0 0
185 0 185 110 0 c73 0 122 -5 145 -14z"/>
<path d="M1232 1603 l3 -148 86 -3 c74 -2 89 0 112 18 26 21 27 24 27 130 0
105 -1 109 -26 129 -23 18 -41 21 -116 21 l-89 0 3 -147z m192 111 c12 -12 16
-38 16 -114 0 -126 -4 -130 -111 -130 l-79 0 0 130 0 130 79 0 c59 0 84 -4 95
-16z"/>
<path d="M1297 1693 c-4 -3 -7 -46 -7 -94 0 -94 3 -99 59 -99 42 0 51 17 51
100 0 46 -5 81 -12 88 -13 13 -80 17 -91 5z"/>
<path d="M1590 1764 l-40 -37 2 -186 3 -186 148 -3 148 -3 40 33 c38 31 40 34
37 83 l-3 50 -39 5 c-35 4 -37 7 -23 19 12 9 17 29 17 65 0 44 4 56 26 75 21
18 25 29 22 69 l-3 47 -147 3 -147 3 -41 -37z m320 -19 l0 -44 -82 -3 c-77 -3
-83 -5 -86 -25 -3 -20 1 -22 60 -25 l63 -3 0 -40 0 -40 -63 -3 c-62 -3 -63 -3
-60 -30 3 -27 4 -27 86 -30 l82 -3 0 -39 0 -40 -135 0 -135 0 0 185 0 185 135
0 135 0 0 -45z"/>
<path d="M1680 1600 l0 -150 95 0 c57 0 95 4 95 10 0 6 -35 10 -85 10 l-85 0
0 60 0 60 65 0 c37 0 65 4 65 10 0 6 -28 10 -65 10 l-65 0 0 60 0 60 85 0 c50
0 85 4 85 10 0 6 -38 10 -95 10 l-95 0 0 -150z"/>
<path d="M2071 1789 c-34 -13 -104 -77 -118 -108 -15 -32 -17 -203 -3 -253 19
-66 46 -78 176 -78 113 0 113 0 149 31 34 30 36 35 33 83 l-3 51 -72 3 -73 3
0 49 c0 48 1 50 29 50 17 0 46 14 75 35 45 35 46 37 46 90 l0 55 -107 -1 c-60
0 -119 -5 -132 -10z m224 -44 l0 -40 -75 -5 -75 -5 -3 -89 c-2 -65 1 -92 10
-98 7 -4 43 -8 81 -8 l67 0 0 -40 0 -40 -106 0 c-103 0 -106 1 -135 29 -29 29
-29 30 -29 153 1 173 16 189 175 185 l90 -2 0 -40z"/>
<path d="M2102 1734 c-21 -14 -22 -23 -22 -134 0 -111 1 -120 22 -134 25 -18
158 -23 158 -6 0 6 -29 10 -66 10 -103 0 -104 2 -104 128 0 71 4 112 12 120 7
7 40 12 79 12 37 0 71 5 74 10 11 17 -127 12 -153 -6z"/>
<path d="M2370 1762 l-40 -39 0 -171 c0 -94 3 -177 6 -186 5 -14 28 -16 155
-16 l148 0 36 31 c34 30 36 35 33 83 l-3 51 -39 5 -38 5 21 19 c16 14 21 31
21 66 0 34 5 52 20 65 15 14 20 31 20 72 l0 53 -150 0 -149 0 -41 -38z m320
-17 l0 -45 -80 0 c-79 0 -80 0 -80 -25 0 -24 3 -25 60 -25 l60 0 0 -45 0 -45
-61 0 c-60 0 -60 0 -57 -27 3 -28 4 -28 81 -31 l77 -3 0 -39 0 -40 -135 0
-135 0 0 178 c0 98 3 182 7 185 3 4 64 7 135 7 l128 0 0 -45z"/>
<path d="M2470 1600 l0 -150 95 0 c57 0 95 4 95 10 0 6 -35 10 -85 10 l-85 0
0 60 0 60 60 0 c33 0 60 4 60 10 0 6 -27 10 -60 10 l-60 0 0 60 0 60 79 0 c44
0 83 5 86 10 4 6 -28 10 -89 10 l-96 0 0 -150z"/>
<path d="M2770 1764 l-40 -37 2 -186 3 -186 70 -3 c65 -3 73 -1 95 23 30 32
40 32 40 0 0 -24 2 -25 68 -25 61 0 71 3 105 31 l37 31 -2 191 -3 192 -64 3
c-57 3 -67 0 -91 -23 l-26 -25 -24 25 c-19 21 -33 25 -77 25 -47 0 -58 -4 -93
-36z m190 -39 c30 -36 58 -65 62 -65 4 0 8 29 8 66 l0 65 53 -3 52 -3 0 -180
0 -180 -52 -3 -53 -3 0 38 c0 30 -10 50 -46 96 -25 31 -50 55 -55 51 -5 -3 -9
-45 -9 -95 l0 -89 -50 0 -50 0 0 185 0 185 43 0 c39 0 45 -4 97 -65z"/>
<path d="M2860 1605 c0 -184 18 -196 22 -14 l3 130 92 -103 c68 -76 93 -110
93 -130 0 -15 5 -30 10 -33 6 -4 10 47 10 144 0 171 -18 211 -22 50 l-3 -101
-90 101 c-49 55 -96 101 -102 101 -10 0 -13 -36 -13 -145z"/>
<path d="M3208 1766 c-34 -29 -38 -39 -38 -79 0 -52 16 -67 69 -67 l31 0 0
-135 0 -135 70 0 c63 0 72 3 105 31 l35 31 0 104 0 103 45 31 c47 33 59 56 53
111 l-3 34 -165 2 -165 2 -37 -33z m352 -20 l0 -45 -47 -3 -48 -3 -3 -137 -3
-138 -54 0 -55 0 0 140 0 140 -45 0 -45 0 0 45 0 45 150 0 150 0 0 -44z"/>
<path d="M3295 1740 c3 -5 28 -10 56 -10 l49 0 0 -141 c0 -91 4 -138 10 -134
6 4 10 62 10 141 l0 134 50 0 c28 0 50 5 50 10 0 6 -45 10 -116 10 -74 0 -113
-4 -109 -10z"/>
<path d="M3628 1769 l-38 -31 0 -194 0 -194 71 0 c64 0 75 3 110 31 l39 31 0
-31 0 -31 67 0 c64 0 69 2 105 37 34 33 38 35 38 16 0 -47 9 -53 77 -53 56 0
70 4 97 27 l31 26 3 -26 c3 -26 5 -27 72 -27 63 0 72 3 105 31 l35 31 0 99 c0
82 -4 110 -26 166 -14 38 -31 80 -36 96 -10 27 -11 27 -109 27 l-99 0 -40 -36
c-28 -26 -47 -57 -70 -114 -16 -44 -30 -90 -30 -102 -1 -16 -5 -12 -15 17 -8
22 -21 45 -29 50 -11 8 -13 23 -9 52 7 52 -2 88 -27 113 -18 18 -34 20 -152
20 l-133 -1 -37 -30z m306 0 c22 -18 26 -28 26 -74 0 -30 -4 -57 -10 -60 -16
-10 -12 -22 10 -28 27 -7 40 -46 40 -123 l0 -64 -55 0 -54 0 -3 58 -3 57 -52
3 -53 3 0 -61 0 -61 -52 3 -53 3 -3 170 c-1 93 0 175 2 182 4 10 36 13 119 13
100 0 117 -3 141 -21z m453 -69 c28 -74 32 -98 33 -182 l0 -98 -49 0 -50 0 -3
43 -3 42 -50 0 -50 0 -3 -42 -3 -43 -50 0 -49 0 0 95 c0 82 4 106 29 168 16
39 32 80 35 90 5 16 16 17 93 15 l88 -3 32 -85z"/>
<path d="M3720 1599 c0 -97 4 -148 10 -144 6 3 10 33 10 66 l0 60 78 -2 c101
-3 112 -9 112 -62 0 -23 5 -49 10 -57 7 -11 10 1 10 42 0 47 -4 60 -22 75 -20
16 -23 26 -20 77 4 84 -9 96 -110 96 l-78 0 0 -151z m168 67 c4 -71 -1 -76
-85 -76 l-63 0 0 70 0 71 73 -3 72 -3 3 -59z"/>
<path d="M3787 1703 c-4 -3 -7 -22 -7 -40 0 -33 1 -34 38 -31 30 2 38 7 40 26
2 13 -2 30 -8 38 -13 14 -51 19 -63 7z"/>
<path d="M4209 1733 c-28 -33 -59 -146 -59 -216 0 -38 4 -67 10 -67 6 0 10 23
10 50 l0 50 95 0 95 0 0 -50 c0 -27 5 -50 10 -50 6 0 10 34 10 83 0 72 -4 90
-33 147 -32 65 -32 65 -78 68 -34 2 -49 -2 -60 -15z m128 -68 c13 -32 23 -70
23 -83 0 -22 -2 -23 -92 -20 -88 3 -93 4 -96 25 -2 13 9 50 24 83 l27 61 46
-3 45 -3 23 -60z"/>
<path d="M4240 1675 c-27 -72 -26 -75 24 -75 52 0 56 8 32 65 -18 41 -43 45
-56 10z"/>
<path d="M4518 1773 c-18 -15 -36 -32 -40 -38 -5 -5 -7 -93 -5 -195 l2 -185
160 -3 160 -2 38 31 38 31 -3 106 -3 107 -57 3 c-51 3 -60 0 -92 -29 l-36 -31
0 116 0 116 -64 0 c-55 0 -69 -4 -98 -27z m144 -125 l3 -143 40 0 40 0 3 53 3
52 49 0 c59 0 63 -7 58 -115 l-3 -70 -150 0 -150 0 -3 170 c-1 93 0 175 2 182
4 8 24 13 55 13 l50 0 3 -142z"/>
<path d="M4600 1600 l0 -150 105 0 105 0 0 60 c0 33 -4 60 -10 60 -5 0 -10
-22 -10 -50 l0 -50 -85 0 -85 0 0 140 c0 87 -4 140 -10 140 -6 0 -10 -57 -10
-150z"/>
</g>
</svg>
