<?xml version="1.0" standalone="no"?>
<!DOCTYPE svg PUBLIC "-//W3C//DTD SVG 20010904//EN"
 "http://www.w3.org/TR/2001/REC-SVG-20010904/DTD/svg10.dtd">
<svg version="1.0" xmlns="http://www.w3.org/2000/svg"
 width="1071.000000pt" height="1071.000000pt" viewBox="0 0 1071.000000 1071.000000"
 preserveAspectRatio="xMidYMid meet">
<metadata>
Created by potrace 1.11, written by Peter Selinger 2001-2013
</metadata>
<g transform="translate(0.000000,1071.000000) scale(0.100000,-0.100000)"
fill="#000000" stroke="none">
<path d="M2897 8024 c-3 -4 -91 -10 -194 -15 -243 -11 -325 -20 -548 -59 -155
-27 -265 -52 -313 -71 -13 -5 -32 -9 -43 -9 -10 0 -27 -4 -37 -9 -9 -5 -44
-17 -77 -27 -33 -10 -64 -22 -70 -26 -5 -4 -17 -8 -27 -8 -10 0 -26 -4 -36 -9
-16 -9 -78 -36 -152 -68 -19 -8 -43 -19 -52 -24 -122 -64 -164 -88 -237 -136
-241 -156 -442 -351 -607 -588 -41 -58 -74 -108 -74 -110 0 -3 -15 -28 -33
-57 -29 -47 -117 -221 -137 -273 -4 -11 -17 -43 -28 -71 -41 -99 -115 -348
-126 -424 -3 -19 -13 -69 -21 -110 -30 -148 -39 -278 -39 -570 0 -292 8 -418
39 -575 9 -44 20 -100 25 -125 12 -64 26 -120 38 -155 5 -16 20 -64 32 -105
12 -41 26 -84 31 -95 5 -11 18 -44 29 -74 25 -65 51 -124 95 -211 200 -404
544 -761 933 -967 34 -18 70 -37 80 -42 45 -25 173 -81 182 -81 6 0 18 -4 28
-10 17 -10 192 -67 272 -90 25 -7 65 -18 90 -25 25 -7 72 -18 105 -25 33 -6
69 -14 80 -16 11 -3 47 -9 80 -14 33 -5 107 -17 165 -26 214 -33 337 -37 1240
-38 l905 -1 3 2650 c1 1458 0 2660 -3 2673 l-5 22 -794 0 c-436 0 -795 -3
-799 -6z m511 -2659 c1 -896 0 -1641 -3 -1654 l-6 -23 -292 6 c-452 9 -661 32
-873 97 -17 5 -40 9 -52 9 -11 0 -24 5 -27 10 -3 6 -14 10 -23 10 -9 0 -30 7
-46 15 -15 8 -33 15 -38 15 -28 0 -214 100 -298 160 -146 104 -308 277 -382
408 -51 91 -86 161 -103 207 -10 28 -22 54 -27 59 -4 6 -8 20 -8 32 0 13 -4
26 -10 29 -5 3 -10 19 -10 34 0 15 -4 31 -8 37 -8 9 -31 104 -51 214 -31 168
-32 476 -1 645 28 156 38 196 83 330 69 209 186 396 349 557 101 100 162 146
283 215 100 56 297 133 342 133 12 0 24 4 27 9 3 5 23 11 43 14 21 3 94 14
163 26 215 36 256 38 615 37 l350 -1 3 -1630z"/>
<path d="M6227 8024 c-4 -4 -7 -1208 -7 -2676 l0 -2668 913 4 c501 2 962 9
1022 14 98 8 153 16 380 52 122 20 172 31 390 89 39 11 155 49 180 60 11 5 39
16 62 25 185 69 395 184 563 309 148 111 418 389 468 484 7 12 18 27 24 35 21
21 68 97 68 108 0 5 3 10 8 10 4 0 12 10 18 23 6 12 36 72 66 132 63 123 78
158 104 230 9 28 21 54 26 60 4 5 8 19 8 31 0 13 4 25 9 28 5 3 11 18 14 33 3
16 13 53 22 83 41 134 69 286 106 575 12 94 7 537 -9 670 -10 94 -27 194 -43
256 -5 20 -9 50 -9 67 0 17 -4 34 -10 37 -5 3 -10 16 -10 27 0 36 -94 334
-111 352 -5 6 -9 16 -9 24 0 8 -20 56 -45 108 -25 51 -45 95 -45 98 0 16 -195
323 -220 346 -3 3 -18 23 -35 45 -49 66 -225 244 -315 319 -167 139 -381 267
-585 348 -139 56 -229 88 -247 88 -9 0 -20 5 -23 10 -3 6 -16 10 -27 10 -12 0
-35 4 -52 10 -82 26 -167 45 -311 70 -209 37 -312 49 -525 61 -190 12 -1803
23 -1813 13z m1837 -1034 c349 -40 522 -83 726 -182 305 -148 529 -393 673
-738 15 -36 27 -73 27 -82 0 -9 5 -20 10 -23 6 -3 10 -19 10 -35 0 -16 4 -31
9 -34 5 -3 11 -23 14 -43 3 -21 15 -83 27 -138 19 -87 22 -133 23 -350 2 -249
-1 -281 -39 -445 -77 -335 -203 -569 -421 -781 -116 -114 -286 -225 -428 -280
-56 -21 -165 -58 -205 -68 -25 -7 -59 -17 -76 -22 -17 -5 -42 -9 -57 -9 -14 0
-38 -5 -54 -11 -72 -27 -323 -48 -687 -55 -272 -6 -290 -5 -303 12 -11 15 -13
309 -13 1640 0 892 3 1629 6 1638 5 14 44 16 336 16 182 0 372 -5 422 -10z"/>
<path d="M4830 5350 l0 -2670 543 2 542 3 3 2645 c1 1455 0 2655 -3 2668 l-5
22 -540 0 -540 0 0 -2670z"/>
</g>
</svg>
