<?xml version="1.0" standalone="no"?>
<!DOCTYPE svg PUBLIC "-//W3C//DTD SVG 20010904//EN"
 "http://www.w3.org/TR/2001/REC-SVG-20010904/DTD/svg10.dtd">
<svg version="1.0" xmlns="http://www.w3.org/2000/svg"
 width="250.000000pt" height="250.000000pt" viewBox="0 0 250.000000 250.000000"
 preserveAspectRatio="xMidYMid meet">
<metadata>
Created by potrace 1.11, written by Peter Selinger 2001-2013
</metadata>
<g transform="translate(0.000000,250.000000) scale(0.100000,-0.100000)"
fill="#000000" stroke="none">
<path d="M0 1250 l0 -1250 1250 0 1250 0 0 1250 0 1250 -1250 0 -1250 0 0
-1250z m1887 977 c-2 -23 -3 -1 -3 48 0 50 1 68 3 42 2 -26 2 -67 0 -90z m-25
-204 l3 -328 248 -3 247 -2 0 -780 0 -780 -780 0 -780 0 0 245 0 245 -330 0
-330 0 0 865 0 865 860 0 860 0 2 -327z m148 195 c0 -24 3 -53 6 -65 5 -20 2
-23 -21 -23 -23 0 -25 2 -15 15 7 8 11 35 8 65 -2 35 1 50 10 50 8 0 12 -15
12 -42z m114 14 c-3 -16 -1 -45 4 -65 11 -38 5 -46 -16 -25 -13 13 -17 100 -5
111 14 15 22 5 17 -21z m88 1 c3 -68 -10 -103 -39 -103 -12 0 -12 3 1 22 9 12
16 42 16 65 0 47 19 60 22 16z m74 -40 c1 -59 0 -65 -12 -48 -14 19 -19 96 -7
108 14 15 18 4 19 -60z m84 9 c0 -48 -12 -72 -38 -72 -10 0 -10 4 2 22 9 12
16 39 16 60 0 21 5 38 10 38 6 0 10 -22 10 -48z m-395 -282 c0 -72 -3 -78 -23
-58 -25 25 -10 128 18 128 3 0 5 -32 5 -70z m153 39 c-8 -22 -8 -41 0 -67 13
-41 9 -50 -13 -32 -18 15 -21 100 -3 118 21 21 27 13 16 -19z m-72 -4 c10 -39
-4 -93 -27 -106 -29 -15 -34 -5 -14 25 11 17 16 40 13 66 -4 45 17 57 28 15z
m158 -8 c7 -40 -9 -93 -31 -101 -24 -10 -26 0 -8 28 11 17 16 40 13 66 -4 49
17 55 26 7z m72 -34 c1 -59 0 -65 -12 -48 -14 19 -19 96 -7 108 14 15 18 4 19
-60z m84 6 c0 -38 -5 -51 -22 -63 -29 -20 -34 -14 -13 18 11 17 16 40 13 65
-2 28 0 37 9 34 8 -3 13 -24 13 -54z m0 -199 c0 -6 -94 -10 -245 -10 -189 0
-245 3 -245 13 0 9 54 11 245 9 149 -2 245 -6 245 -12z m-1610 -1317 c0 -115
3 -225 6 -246 5 -24 3 -37 -5 -37 -6 0 -11 7 -11 15 0 10 -11 15 -35 15 -36 0
-47 13 -20 24 10 4 15 20 15 51 0 33 -4 45 -15 45 -8 0 -15 4 -15 8 0 11 56
43 64 35 3 -3 6 21 6 55 0 58 -1 62 -23 62 -43 0 -62 24 -62 77 0 26 4 58 8
71 8 20 5 22 -28 22 -33 0 -36 -2 -28 -22 4 -13 8 -45 8 -71 0 -53 -19 -77
-60 -77 -41 0 -60 24 -60 77 0 26 4 58 8 71 8 21 6 22 -37 22 l-46 0 0 -69 c0
-52 4 -70 15 -75 30 -11 14 -26 -29 -26 -46 0 -68 13 -41 24 23 8 21 92 -2
101 -17 6 -17 7 0 19 29 22 20 27 -40 24 l-58 -3 -3 -64 c-2 -50 0 -67 12 -73
29 -16 17 -28 -28 -28 -46 0 -68 13 -41 24 22 8 20 85 -2 102 -17 12 -17 13 0
19 35 14 16 27 -33 23 -28 -1 -50 0 -50 5 0 4 142 7 315 7 l315 0 0 -207z
m-610 112 c0 -22 -5 -47 -10 -55 -7 -10 -10 6 -10 55 0 49 3 65 10 55 5 -8 10
-33 10 -55z m120 -270 c0 -47 4 -64 15 -69 32 -12 13 -26 -35 -26 -48 0 -66
12 -35 24 10 4 15 20 15 51 0 33 -4 45 -15 45 -8 0 -15 3 -15 8 0 11 53 41 62
36 5 -3 8 -34 8 -69z m160 0 c0 -47 4 -64 15 -69 32 -12 13 -26 -35 -26 -48 0
-66 12 -35 24 10 4 15 20 15 51 0 33 -4 45 -15 45 -8 0 -15 3 -15 8 0 11 53
41 62 36 5 -3 8 -34 8 -69z m158 1 c2 -47 7 -69 17 -73 31 -11 13 -23 -35 -23
-48 0 -66 12 -35 24 21 8 21 96 0 96 -8 0 -15 3 -15 6 0 10 45 43 55 40 6 -1
11 -33 13 -70z"/>
<path d="M217 2253 c-9 -8 -9 -1479 -1 -1510 l6 -23 289 0 289 0 0 485 0 485
480 2 480 3 1 280 0 280 -769 3 c-423 1 -772 -1 -775 -5z m1521 -25 c14 -14
17 -484 4 -505 -6 -9 -124 -13 -490 -15 -265 -2 -482 0 -482 5 0 4 214 7 475
7 l475 0 0 245 0 245 -730 0 -730 0 0 -725 0 -725 258 -3 257 -3 -265 1 -265
0 -3 235 c-2 129 0 461 3 737 l7 502 42 4 c22 2 354 4 736 5 530 2 699 -1 708
-10z"/>
<path d="M896 1592 c-3 -5 -1 -47 4 -93 6 -46 10 -109 10 -141 0 -35 5 -59 13
-62 10 -5 10 -7 0 -12 -20 -9 -17 -113 4 -136 23 -26 24 -110 1 -135 -25 -27
-23 -105 3 -160 15 -32 19 -53 15 -78 -10 -52 -36 -46 -37 8 0 23 -4 60 -8 82
-7 33 -9 24 -10 -52 l-1 -93 438 0 437 0 -2 437 -3 438 -429 3 c-236 1 -432
-2 -435 -6z m184 -22 c11 -7 1 -10 -35 -10 -36 0 -46 3 -35 10 8 5 24 10 35
10 11 0 27 -5 35 -10z m154 -2 c-7 -11 -62 -10 -68 1 -3 5 12 8 33 7 22 0 37
-4 35 -8z m160 0 c-7 -11 -62 -10 -68 1 -3 5 12 8 33 7 22 0 37 -4 35 -8z
m146 2 c0 -5 -9 -10 -20 -10 -11 0 -20 5 -20 10 0 6 9 10 20 10 11 0 20 -4 20
-10z m150 0 c0 -5 -7 -10 -15 -10 -8 0 -15 5 -15 10 0 6 7 10 15 10 8 0 15 -4
15 -10z m-600 -149 c14 -27 13 -114 -2 -129 -7 -7 -27 -12 -44 -12 -40 0 -64
30 -64 80 0 51 24 80 65 80 24 0 38 -6 45 -19z m160 0 c5 -11 10 -38 10 -61 0
-62 -13 -80 -61 -80 -33 0 -41 4 -49 26 -15 38 -12 87 6 112 20 29 79 31 94 3z
m130 -51 c0 -56 3 -70 15 -70 8 0 15 -4 15 -10 0 -5 -20 -10 -45 -10 -25 0
-45 5 -45 10 0 6 7 10 15 10 11 0 15 12 15 50 0 38 -4 50 -15 50 -8 0 -15 5
-15 10 0 6 7 10 15 10 8 0 15 5 15 10 0 6 7 10 15 10 12 0 15 -14 15 -70z
m184 54 c10 -10 16 -33 16 -64 0 -58 -18 -80 -65 -80 -24 0 -38 6 -45 19 -15
29 -12 93 6 119 18 26 65 30 88 6z m160 -6 c9 -12 16 -38 16 -58 0 -51 -24
-80 -65 -80 -41 0 -55 20 -55 77 0 51 23 83 60 83 18 0 34 -8 44 -22z m-634
-277 c16 -31 13 -116 -6 -131 -18 -16 -71 -17 -85 -3 -20 20 -23 100 -5 128
21 32 80 36 96 6z m130 -51 c0 -56 3 -70 15 -70 8 0 15 -4 15 -10 0 -5 -20
-10 -45 -10 -25 0 -45 5 -45 10 0 6 7 10 15 10 11 0 15 12 15 45 0 31 -5 47
-15 51 -21 8 -19 17 8 30 36 18 37 17 37 -56z m160 0 c0 -56 3 -70 15 -70 8 0
15 -4 15 -10 0 -5 -20 -10 -45 -10 -25 0 -45 5 -45 10 0 6 7 10 15 10 11 0 15
12 15 45 0 31 -5 47 -15 51 -8 4 -15 10 -15 15 0 5 7 9 15 9 8 0 15 5 15 10 0
6 7 10 15 10 12 0 15 -14 15 -70z m182 53 c12 -11 18 -30 18 -60 0 -65 -13
-83 -60 -83 -46 0 -60 18 -60 77 0 72 56 108 102 66z m162 -5 c18 -25 21 -74
6 -112 -8 -22 -16 -26 -49 -26 -30 0 -43 5 -51 19 -16 31 -12 102 7 123 23 25
68 23 87 -4z m-664 -328 c0 -56 -3 -70 -15 -70 -11 0 -15 12 -15 45 0 33 -5
47 -16 52 -14 5 -13 9 7 24 13 10 27 19 32 19 4 0 7 -31 7 -70z m185 54 c21
-22 17 -117 -5 -122 -12 -2 -14 7 -12 46 3 36 -1 52 -13 62 -27 22 -48 -13
-42 -68 4 -36 2 -42 -12 -40 -23 4 -27 82 -6 114 18 28 65 33 90 8z m159 -3
c22 -24 19 -114 -4 -119 -12 -2 -14 7 -12 46 3 36 -1 52 -13 62 -27 22 -48
-13 -42 -68 4 -36 2 -42 -12 -40 -23 4 -27 82 -6 114 19 30 64 32 89 5z m136
-51 c0 -56 -3 -70 -15 -70 -11 0 -15 12 -15 46 0 38 -4 47 -21 51 -19 5 -18 7
8 24 15 9 31 18 36 18 4 1 7 -30 7 -69z m184 48 c25 -36 19 -118 -9 -118 -8 0
-11 14 -7 48 3 36 0 51 -12 61 -28 24 -48 -4 -44 -61 2 -39 0 -48 -12 -46 -23
5 -26 95 -4 119 24 26 69 24 88 -3z"/>
<path d="M1014 1385 c-8 -45 9 -88 34 -83 14 3 17 14 17 58 0 49 -2 55 -22 58
-18 3 -23 -3 -29 -33z"/>
<path d="M1176 1404 c-11 -29 -6 -81 9 -94 25 -21 45 -4 45 39 0 52 -8 71 -30
71 -10 0 -21 -7 -24 -16z"/>
<path d="M1496 1404 c-3 -9 -6 -28 -6 -44 0 -41 10 -60 30 -60 20 0 30 19 30
60 0 41 -10 60 -30 60 -10 0 -21 -7 -24 -16z"/>
<path d="M1661 1416 c-7 -8 -11 -36 -9 -63 2 -37 7 -49 22 -51 10 -2 22 2 27
10 19 30 4 118 -20 118 -5 0 -14 -6 -20 -14z"/>
<path d="M1020 1121 c-23 -44 0 -111 34 -98 16 7 23 68 10 101 -8 22 -31 20
-44 -3z"/>
<path d="M1496 1124 c-10 -27 -7 -79 7 -98 13 -17 14 -17 30 -1 30 29 20 115
-13 115 -10 0 -21 -7 -24 -16z"/>
<path d="M1657 1133 c-13 -12 -7 -100 7 -112 31 -26 60 50 40 103 -6 16 -35
22 -47 9z"/>
<path d="M1860 1110 l0 -490 -479 0 c-264 0 -482 -3 -484 -8 -5 -7 949 -5 971
3 9 3 12 109 12 480 l0 475 180 0 180 0 -2 -657 -3 -658 -665 0 -665 0 -6 75
-6 75 1 -85 1 -85 683 -3 682 -2 0 685 0 685 -200 0 -200 0 0 -490z"/>
<path d="M1890 1075 l0 -485 -479 0 c-396 0 -481 -2 -490 -14 -8 -9 -11 -60
-9 -157 l3 -144 647 -3 647 -2 6 52 c3 29 5 319 3 643 l-3 590 -162 3 -163 2
0 -485z"/>
<path d="M552 568 c-7 -7 -12 -30 -12 -53 0 -23 5 -46 12 -53 19 -19 38 6 38
53 0 47 -19 72 -38 53z"/>
<path d="M713 573 c-17 -6 -17 -95 -1 -111 19 -19 38 6 38 53 0 43 -15 66 -37
58z"/>
</g>
</svg>
